<svg xmlns="http://www.w3.org/2000/svg" version="1.1" xmlns:xlink="http://www.w3.org/1999/xlink" xmlns:svgjs="http://svgjs.dev/svgjs" viewBox="0 0 1422 800" opacity="0.7"><defs><linearGradient x1="50%" y1="0%" x2="50%" y2="100%" id="oooscillate-grad"><stop stop-color="#c0bbf8" stop-opacity="1" offset="0%"></stop><stop stop-color="#ffffff" stop-opacity="1" offset="100%"></stop></linearGradient></defs><g stroke-width="2" stroke="url(#oooscillate-grad)" fill="none" stroke-linecap="round"><path d="M 0 930 Q 355.5 145 711 400 Q 1066.5 655 1422 930" opacity="0.75"></path><path d="M 0 900 Q 355.5 145 711 400 Q 1066.5 655 1422 900" opacity="0.85"></path><path d="M 0 870 Q 355.5 145 711 400 Q 1066.5 655 1422 870" opacity="0.79"></path><path d="M 0 840 Q 355.5 145 711 400 Q 1066.5 655 1422 840" opacity="0.87"></path><path d="M 0 810 Q 355.5 145 711 400 Q 1066.5 655 1422 810" opacity="0.19"></path><path d="M 0 780 Q 355.5 145 711 400 Q 1066.5 655 1422 780" opacity="0.64"></path><path d="M 0 750 Q 355.5 145 711 400 Q 1066.5 655 1422 750" opacity="0.62"></path><path d="M 0 720 Q 355.5 145 711 400 Q 1066.5 655 1422 720" opacity="0.07"></path><path d="M 0 690 Q 355.5 145 711 400 Q 1066.5 655 1422 690" opacity="0.23"></path><path d="M 0 660 Q 355.5 145 711 400 Q 1066.5 655 1422 660" opacity="0.26"></path><path d="M 0 630 Q 355.5 145 711 400 Q 1066.5 655 1422 630" opacity="0.74"></path><path d="M 0 600 Q 355.5 145 711 400 Q 1066.5 655 1422 600" opacity="0.94"></path><path d="M 0 570 Q 355.5 145 711 400 Q 1066.5 655 1422 570" opacity="0.63"></path><path d="M 0 540 Q 355.5 145 711 400 Q 1066.5 655 1422 540" opacity="0.46"></path><path d="M 0 510 Q 355.5 145 711 400 Q 1066.5 655 1422 510" opacity="0.63"></path><path d="M 0 480 Q 355.5 145 711 400 Q 1066.5 655 1422 480" opacity="0.62"></path><path d="M 0 450 Q 355.5 145 711 400 Q 1066.5 655 1422 450" opacity="0.82"></path><path d="M 0 420 Q 355.5 145 711 400 Q 1066.5 655 1422 420" opacity="0.46"></path><path d="M 0 390 Q 355.5 145 711 400 Q 1066.5 655 1422 390" opacity="0.86"></path><path d="M 0 360 Q 355.5 145 711 400 Q 1066.5 655 1422 360" opacity="0.46"></path><path d="M 0 330 Q 355.5 145 711 400 Q 1066.5 655 1422 330" opacity="0.69"></path><path d="M 0 300 Q 355.5 145 711 400 Q 1066.5 655 1422 300" opacity="0.69"></path><path d="M 0 270 Q 355.5 145 711 400 Q 1066.5 655 1422 270" opacity="0.17"></path><path d="M 0 240 Q 355.5 145 711 400 Q 1066.5 655 1422 240" opacity="0.55"></path><path d="M 0 210 Q 355.5 145 711 400 Q 1066.5 655 1422 210" opacity="0.49"></path><path d="M 0 180 Q 355.5 145 711 400 Q 1066.5 655 1422 180" opacity="0.33"></path><path d="M 0 150 Q 355.5 145 711 400 Q 1066.5 655 1422 150" opacity="0.21"></path><path d="M 0 120 Q 355.5 145 711 400 Q 1066.5 655 1422 120" opacity="0.55"></path><path d="M 0 90 Q 355.5 145 711 400 Q 1066.5 655 1422 90" opacity="0.75"></path><path d="M 0 60 Q 355.5 145 711 400 Q 1066.5 655 1422 60" opacity="0.34"></path></g></svg>